<svg width="80" height="80" viewBox="0 0 80 80" fill="none" xmlns="http://www.w3.org/2000/svg">
<g clip-path="url(#clip0)">
<path d="M80 9.16687C80 4.11011 75.8899 0 70.8331 0H9.16687C4.11011 0 0 4.11011 0 9.16687V70.8331C0 75.8899 4.11011 80 9.16687 80H70.8331C75.8899 80 80 75.8899 80 70.8331V9.16687Z" fill="#4CAF50"/>
<path d="M38.3331 53.3331C37.6935 53.3331 37.0532 53.0902 36.5668 52.6001L25.733 41.767C24.7565 40.7898 24.7565 39.2065 25.733 38.23C26.7102 37.2534 28.2935 37.2534 29.27 38.23L38.3368 47.2968L54.9036 30.73C55.8801 29.7534 57.4634 29.7534 58.4399 30.73C59.4165 31.7065 59.4165 33.2898 58.4399 34.267L40.1068 52.6001C39.613 53.0902 38.9734 53.3331 38.3331 53.3331Z" fill="#FFD953"/>
<path d="M70.8331 80H9.16687C4.11011 80 0 75.8899 0 70.8331V9.16687C0 4.11011 4.11011 0 9.16687 0H70.8331C75.8899 0 80 4.11011 80 9.16687V70.8331C80 75.8899 75.8899 80 70.8331 80ZM9.16687 5C6.87012 5 5 6.87012 5 9.16687V70.8331C5 73.1299 6.87012 75 9.16687 75H70.8331C73.1299 75 75 73.1299 75 70.8331V9.16687C75 6.87012 73.1299 5 70.8331 5H9.16687Z" fill="#FFD953"/>
</g>
<defs>
<clipPath id="clip0">
<rect width="80" height="80" fill="white"/>
</clipPath>
</defs>
</svg>
