<svg width="81" height="29" viewBox="0 0 81 29" fill="none" xmlns="http://www.w3.org/2000/svg">
<path d="M43.7188 17.5078C43.3333 18.0599 42.7943 18.474 42.1016 18.75C41.4141 19.0208 40.612 19.1562 39.6953 19.1562C38.7682 19.1562 37.9453 18.9401 37.2266 18.5078C36.5078 18.0703 35.9505 17.4505 35.5547 16.6484C35.1641 15.8464 34.9635 14.9167 34.9531 13.8594V12.8672C34.9531 11.1536 35.3516 9.82552 36.1484 8.88281C36.9505 7.9401 38.0755 7.46875 39.5234 7.46875C40.7109 7.46875 41.6667 7.77344 42.3906 8.38281C43.1146 8.98698 43.5573 9.84635 43.7188 10.9609H42.2188C41.9375 9.45573 41.0417 8.70312 39.5312 8.70312C38.526 8.70312 37.763 9.05729 37.2422 9.76562C36.7266 10.4688 36.4661 11.4896 36.4609 12.8281V13.7578C36.4609 15.0339 36.7526 16.0495 37.3359 16.8047C37.9193 17.5547 38.7083 17.9297 39.7031 17.9297C40.2656 17.9297 40.7578 17.8672 41.1797 17.7422C41.6016 17.6172 41.9505 17.4062 42.2266 17.1094V14.5547H39.5938V13.3359H43.7188V17.5078ZM47.5703 19H46.125V10.5469H47.5703V19ZM46.0078 8.30469C46.0078 8.07031 46.0781 7.8724 46.2188 7.71094C46.3646 7.54948 46.5781 7.46875 46.8594 7.46875C47.1406 7.46875 47.3542 7.54948 47.5 7.71094C47.6458 7.8724 47.7188 8.07031 47.7188 8.30469C47.7188 8.53906 47.6458 8.73438 47.5 8.89062C47.3542 9.04688 47.1406 9.125 46.8594 9.125C46.5781 9.125 46.3646 9.04688 46.2188 8.89062C46.0781 8.73438 46.0078 8.53906 46.0078 8.30469ZM51.8516 8.5V10.5469H53.4297V11.6641H51.8516V16.9062C51.8516 17.2448 51.9219 17.5 52.0625 17.6719C52.2031 17.8385 52.4427 17.9219 52.7812 17.9219C52.9479 17.9219 53.1771 17.8906 53.4688 17.8281V19C53.0885 19.1042 52.7188 19.1562 52.3594 19.1562C51.7135 19.1562 51.2266 18.9609 50.8984 18.5703C50.5703 18.1797 50.4062 17.625 50.4062 16.9062V11.6641H48.8672V10.5469H50.4062V8.5H51.8516ZM56.5703 11.5703C57.2109 10.7839 58.0443 10.3906 59.0703 10.3906C60.8568 10.3906 61.7578 11.3984 61.7734 13.4141V19H60.3281V13.4062C60.3229 12.7969 60.1823 12.3464 59.9062 12.0547C59.6354 11.763 59.2109 11.6172 58.6328 11.6172C58.1641 11.6172 57.7526 11.7422 57.3984 11.9922C57.0443 12.2422 56.7682 12.5703 56.5703 12.9766V19H55.125V7H56.5703V11.5703ZM69.1562 18.1641C68.5938 18.8255 67.7682 19.1562 66.6797 19.1562C65.7786 19.1562 65.0911 18.8958 64.6172 18.375C64.1484 17.849 63.9115 17.0729 63.9062 16.0469V10.5469H65.3516V16.0078C65.3516 17.2891 65.8724 17.9297 66.9141 17.9297C68.0182 17.9297 68.7526 17.5182 69.1172 16.6953V10.5469H70.5625V19H69.1875L69.1562 18.1641ZM79.9219 14.8672C79.9219 16.1589 79.625 17.1979 79.0312 17.9844C78.4375 18.7656 77.6406 19.1562 76.6406 19.1562C75.5729 19.1562 74.7474 18.7786 74.1641 18.0234L74.0938 19H72.7656V7H74.2109V11.4766C74.7943 10.7526 75.599 10.3906 76.625 10.3906C77.651 10.3906 78.4557 10.7786 79.0391 11.5547C79.6276 12.3307 79.9219 13.3932 79.9219 14.7422V14.8672ZM78.4766 14.7031C78.4766 13.7188 78.2865 12.9583 77.9062 12.4219C77.526 11.8854 76.9792 11.6172 76.2656 11.6172C75.3125 11.6172 74.6276 12.0599 74.2109 12.9453V16.6016C74.6536 17.487 75.3438 17.9297 76.2812 17.9297C76.974 17.9297 77.513 17.6615 77.8984 17.125C78.2839 16.5885 78.4766 15.7812 78.4766 14.7031Z" fill="#2C2C2C"/>
<path d="M14.5 0C6.53071 0 0 6.58735 0 14.5566C0 22.4797 6.47119 29 14.5 29C22.5189 29 29 22.4894 29 14.5566C29 6.58735 22.4693 0 14.5 0ZM17.0488 27.0459C16.2333 27.2158 15.3666 27.3008 14.5 27.3008C13.6334 27.3008 12.7667 27.2158 11.9512 27.0459V23.0698C11.9512 22.1182 12.2061 21.7783 12.5459 21.3194C12.7189 21.1216 12.8233 20.9442 13.5993 19.7733L12.291 19.5693C8.92643 19.0766 7.60113 17.3263 7.07433 15.9669C6.39464 14.1489 6.75152 11.8717 7.97504 10.4276C8.162 10.2066 8.31489 9.83268 8.17904 9.44195C7.92393 8.66026 7.95801 7.41992 8.12793 6.94401C9.02887 7.07278 9.95525 7.71817 10.7279 8.18457C11.0839 8.39233 11.2706 8.33746 11.4414 8.35449C12.0622 8.22528 13.0307 7.91265 14.517 7.91265C15.4346 7.91265 16.4032 8.0485 17.3548 8.32042C17.525 8.31644 17.7984 8.46114 18.2724 8.18457C19.0799 7.6925 19.9749 7.06924 20.8721 6.94401C21.042 7.41992 21.0761 8.66026 20.8212 9.44195C20.6851 9.83268 20.838 10.2066 21.0252 10.4276C22.2485 11.872 22.6054 14.1489 21.9257 15.9669C21.3989 17.3263 20.0736 19.0766 16.709 19.5693L15.4007 19.7733C16.2028 20.9836 16.2873 21.1287 16.4543 21.3194C16.7939 21.7783 17.0488 22.1182 17.0488 23.0698V27.0459ZM18.748 26.5532V23.0698C18.748 22.1011 18.5441 21.4555 18.2721 20.9796C20.855 20.2831 22.6903 18.7536 23.5059 16.5616C24.3725 14.2509 23.9818 11.498 22.5372 9.59483C22.7923 8.45649 22.7923 6.63824 22.1806 5.78863C21.9086 5.41493 21.5347 5.21094 21.059 5.21094C21.042 5.21094 21.042 5.21094 21.042 5.21094C19.7244 5.28218 18.6874 5.94572 17.5756 6.6212C16.5561 6.34928 15.5195 6.21343 14.483 6.21343C13.4296 6.21343 12.376 6.36632 11.4416 6.6212C10.2712 5.91541 9.24415 5.28041 7.89008 5.21094C7.46528 5.21094 7.09136 5.41493 6.81944 5.78863C6.2079 6.63824 6.2079 8.45649 6.46278 9.59483C5.01823 11.498 4.62749 14.2677 5.49414 16.5616C6.30968 18.7536 8.14497 20.2831 10.7279 20.9796C10.517 21.3484 10.3502 21.8243 10.2845 22.4684C9.76276 22.6483 9.3103 22.7069 8.88948 22.5832C8.44565 22.452 8.09983 22.1558 7.79937 21.6504C7.12455 20.5167 5.97514 19.5912 4.66644 19.7116L4.81578 21.4042C5.42179 21.3486 6.02493 21.9898 6.33822 22.5184C6.85506 23.3888 7.55135 23.9596 8.40826 24.2128C9.04436 24.4002 9.62581 24.3957 10.252 24.2621V26.5532C5.30718 24.8199 1.69922 20.0961 1.69922 14.5566C1.69922 7.52192 7.46528 1.69922 14.5 1.69922C21.5347 1.69922 27.3008 7.52192 27.3008 14.5566C27.3008 20.0961 23.6928 24.8199 18.748 26.5532Z" fill="black"/>
</svg>
