<svg width="138" height="130" viewBox="0 0 138 130" fill="none" xmlns="http://www.w3.org/2000/svg">
<path d="M76.2962 108.125L53.6178 116.211L52.758 119.216C51.5371 123.494 46.8984 126.992 42.4512 126.992H87.4629L76.2962 108.125Z" fill="#ADACA7"/>
<path d="M85.242 119.216L82.0723 108.125L69 100.039L55.9277 108.125L53.6179 116.211H76.2962L77.156 119.216C78.377 123.494 83.0156 126.992 87.4629 126.992H95.5488C91.1016 126.992 86.4629 123.494 85.242 119.216Z" fill="#8F8F8B"/>
<path d="M119.807 108.125H127.893C132.34 108.125 135.979 104.486 135.979 100.039V83.8672L119.807 67.6953V108.125Z" fill="#ADACA7"/>
<path d="M2.02148 100.039C2.02148 104.486 5.66016 108.125 10.1074 108.125H119.807C124.254 108.125 127.893 104.486 127.893 100.039V51.5234L2.02148 83.8672V100.039Z" fill="#CBC9C2"/>
<path d="M127.893 3.00781H119.807L127.893 83.8672H135.979V11.0938C135.979 6.64648 132.34 3.00781 127.893 3.00781Z" fill="#404242"/>
<path d="M127.893 11.0938C127.893 6.64648 124.254 3.00781 119.807 3.00781H10.1074C5.66016 3.00781 2.02148 6.64648 2.02148 11.0938V83.8672H127.893V75.7812L69 43.434L127.893 11.0938Z" fill="#565959"/>
<path d="M127.893 11.0925L119.808 11.0868C119.808 11.0881 69 43.434 69 43.434C69 43.434 119.807 75.7808 119.807 75.7813L127.892 75.7759C127.893 75.7759 127.892 11.0935 127.893 11.0925Z" fill="#4B88D5"/>
<path d="M119.807 11.0924L10.1311 11.0864C10.1244 11.0897 10.1187 75.7799 10.1074 75.7812C10.1074 75.7812 119.801 75.7758 119.804 75.7758C119.805 75.7758 119.795 11.0934 119.807 11.0924Z" fill="#69A7FF"/>
<path d="M69 100.039C71.2329 100.039 73.043 98.229 73.043 95.9961C73.043 93.7632 71.2329 91.9531 69 91.9531C66.7671 91.9531 64.957 93.7632 64.957 95.9961C64.957 98.229 66.7671 100.039 69 100.039Z" fill="white"/>
<path d="M127.893 0.986328H10.1074C4.53405 0.986328 0 5.52038 0 11.0938V100.039C0 105.612 4.53405 110.146 10.1074 110.146H53.2478L50.8147 118.662C49.8377 122.082 46.0076 124.971 42.4512 124.971H27.2227C26.1063 124.971 25.2012 125.876 25.2012 126.992C25.2012 128.109 26.1063 129.014 27.2227 129.014H110.777C111.894 129.014 112.799 128.109 112.799 126.992C112.799 125.876 111.894 124.971 110.777 124.971H95.5488C91.9924 124.971 88.1623 122.082 87.1853 118.662L84.7522 110.146H127.893C133.466 110.146 138 105.612 138 100.039V11.0938C138 5.52038 133.466 0.986328 127.893 0.986328ZM10.1074 5.0293H127.893C131.237 5.0293 133.957 7.74995 133.957 11.0938V81.8457H4.04297V11.0938C4.04297 7.74995 6.76335 5.0293 10.1074 5.0293ZM83.2978 119.773C83.8525 121.715 84.9552 123.499 86.4007 124.971H51.5993C53.0448 123.499 54.1475 121.714 54.7022 119.773L57.4525 110.146H80.5473L83.2978 119.773ZM127.893 106.104H10.1074C6.76335 106.104 4.04297 103.383 4.04297 100.039V85.8887H133.957V100.039C133.957 103.383 131.237 106.104 127.893 106.104Z" fill="black"/>
<path d="M10.1074 77.8027H127.893C129.009 77.8027 129.914 76.8979 129.914 75.7812V11.0938C129.914 9.97708 129.009 9.07227 127.893 9.07227H10.1074C8.99102 9.07227 8.08594 9.97708 8.08594 11.0938V39.3945C8.08594 40.5112 8.99102 41.416 10.1074 41.416C11.2238 41.416 12.1289 40.5112 12.1289 39.3945V13.1152H125.871V73.7598H12.1289V47.4805C12.1289 46.3638 11.2238 45.459 10.1074 45.459C8.99102 45.459 8.08594 46.3638 8.08594 47.4805V75.7812C8.08594 76.8979 8.99102 77.8027 10.1074 77.8027Z" fill="black"/>
<path d="M69 89.9316C65.6559 89.9316 62.9355 92.6523 62.9355 95.9961C62.9355 99.3399 65.6559 102.061 69 102.061C72.3441 102.061 75.0645 99.3399 75.0645 95.9961C75.0645 92.6523 72.3441 89.9316 69 89.9316ZM69 98.0176C67.8852 98.0176 66.9785 97.1109 66.9785 95.9961C66.9785 94.8813 67.8852 93.9746 69 93.9746C70.1148 93.9746 71.0215 94.8813 71.0215 95.9961C71.0215 97.1109 70.1148 98.0176 69 98.0176Z" fill="black"/>
</svg>
