<svg width="94" height="28" viewBox="0 0 94 28" fill="none" xmlns="http://www.w3.org/2000/svg">
<path d="M36.8281 17.7734H42.2188V19H35.3203V7.625H36.8281V17.7734ZM45.2734 19H43.8281V10.5469H45.2734V19ZM43.7109 8.30469C43.7109 8.07031 43.7812 7.8724 43.9219 7.71094C44.0677 7.54948 44.2812 7.46875 44.5625 7.46875C44.8438 7.46875 45.0573 7.54948 45.2031 7.71094C45.349 7.8724 45.4219 8.07031 45.4219 8.30469C45.4219 8.53906 45.349 8.73438 45.2031 8.89062C45.0573 9.04688 44.8438 9.125 44.5625 9.125C44.2812 9.125 44.0677 9.04688 43.9219 8.89062C43.7812 8.73438 43.7109 8.53906 43.7109 8.30469ZM48.9609 10.5469L49.0078 11.6094C49.6536 10.7969 50.4974 10.3906 51.5391 10.3906C53.3255 10.3906 54.2266 11.3984 54.2422 13.4141V19H52.7969V13.4062C52.7917 12.7969 52.651 12.3464 52.375 12.0547C52.1042 11.763 51.6797 11.6172 51.1016 11.6172C50.6328 11.6172 50.2214 11.7422 49.8672 11.9922C49.513 12.2422 49.237 12.5703 49.0391 12.9766V19H47.5938V10.5469H48.9609ZM58.7812 15.0859L57.875 16.0312V19H56.4297V7H57.875V14.2578L58.6484 13.3281L61.2812 10.5469H63.0391L59.75 14.0781L63.4219 19H61.7266L58.7812 15.0859ZM67.8828 19.1562C66.737 19.1562 65.8047 18.7812 65.0859 18.0312C64.3672 17.276 64.0078 16.2682 64.0078 15.0078V14.7422C64.0078 13.9036 64.1667 13.1562 64.4844 12.5C64.8073 11.8385 65.2552 11.3229 65.8281 10.9531C66.4062 10.5781 67.0312 10.3906 67.7031 10.3906C68.8021 10.3906 69.6562 10.7526 70.2656 11.4766C70.875 12.2005 71.1797 13.237 71.1797 14.5859V15.1875H65.4531C65.474 16.0208 65.7161 16.6953 66.1797 17.2109C66.6484 17.7214 67.2422 17.9766 67.9609 17.9766C68.4714 17.9766 68.9036 17.8724 69.2578 17.6641C69.612 17.4557 69.9219 17.1797 70.1875 16.8359L71.0703 17.5234C70.362 18.612 69.2995 19.1562 67.8828 19.1562ZM67.7031 11.5781C67.1198 11.5781 66.6302 11.7917 66.2344 12.2188C65.8385 12.6406 65.5938 13.2344 65.5 14H69.7344V13.8906C69.6927 13.1562 69.4948 12.5885 69.1406 12.1875C68.7865 11.7812 68.3073 11.5781 67.7031 11.5781ZM72.5078 14.7031C72.5078 13.4062 72.8151 12.3646 73.4297 11.5781C74.0443 10.7865 74.849 10.3906 75.8438 10.3906C76.8333 10.3906 77.6172 10.7292 78.1953 11.4062V7H79.6406V19H78.3125L78.2422 18.0938C77.6641 18.8021 76.8594 19.1562 75.8281 19.1562C74.849 19.1562 74.0495 18.7552 73.4297 17.9531C72.8151 17.151 72.5078 16.1042 72.5078 14.8125V14.7031ZM73.9531 14.8672C73.9531 15.8255 74.151 16.5755 74.5469 17.1172C74.9427 17.6589 75.4896 17.9297 76.1875 17.9297C77.1042 17.9297 77.7734 17.5182 78.1953 16.6953V12.8125C77.763 12.0156 77.099 11.6172 76.2031 11.6172C75.4948 11.6172 74.9427 11.8906 74.5469 12.4375C74.151 12.9844 73.9531 13.7943 73.9531 14.8672ZM83.4609 19H82.0156V10.5469H83.4609V19ZM81.8984 8.30469C81.8984 8.07031 81.9688 7.8724 82.1094 7.71094C82.2552 7.54948 82.4688 7.46875 82.75 7.46875C83.0312 7.46875 83.2448 7.54948 83.3906 7.71094C83.5365 7.8724 83.6094 8.07031 83.6094 8.30469C83.6094 8.53906 83.5365 8.73438 83.3906 8.89062C83.2448 9.04688 83.0312 9.125 82.75 9.125C82.4688 9.125 82.2552 9.04688 82.1094 8.89062C81.9688 8.73438 81.8984 8.53906 81.8984 8.30469ZM87.1484 10.5469L87.1953 11.6094C87.8411 10.7969 88.6849 10.3906 89.7266 10.3906C91.513 10.3906 92.4141 11.3984 92.4297 13.4141V19H90.9844V13.4062C90.9792 12.7969 90.8385 12.3464 90.5625 12.0547C90.2917 11.763 89.8672 11.6172 89.2891 11.6172C88.8203 11.6172 88.4089 11.7422 88.0547 11.9922C87.7005 12.2422 87.4245 12.5703 87.2266 12.9766V19H85.7812V10.5469H87.1484Z" fill="#2C2C2C"/>
<path d="M8.75043 23.1328H4.9223V10.7734H8.75043V23.1328ZM9.13239 6.83572C9.13239 5.59821 8.12836 4.59375 6.89148 4.59375C5.6499 4.59375 4.64844 5.59821 4.64844 6.83572C4.64844 8.07367 5.6499 9.07812 6.89148 9.07812C8.12836 9.07812 9.13239 8.07367 9.13239 6.83572ZM23.0781 16.3332C23.0781 13.0154 22.3772 10.5547 18.5015 10.5547C16.6391 10.5547 15.389 11.4861 14.8786 12.4547H14.875V10.7734H11.1562V23.1328H14.875V16.9963C14.875 15.3892 15.2841 13.8323 17.2761 13.8323C19.241 13.8323 19.3047 15.6701 19.3047 17.0984V23.1328H23.0781V16.3332ZM28 24.7188V3.28125C28 1.47186 26.5281 0 24.7188 0H3.28125C1.47186 0 0 1.47186 0 3.28125V24.7188C0 26.5281 1.47186 28 3.28125 28H24.7188C26.5281 28 28 26.5281 28 24.7188ZM24.7188 2.1875C25.3218 2.1875 25.8125 2.67819 25.8125 3.28125V24.7188C25.8125 25.3218 25.3218 25.8125 24.7188 25.8125H3.28125C2.67819 25.8125 2.1875 25.3218 2.1875 24.7188V3.28125C2.1875 2.67819 2.67819 2.1875 3.28125 2.1875H24.7188Z" fill="black"/>
</svg>
