<svg width="27" height="27" viewBox="0 0 27 27" fill="none" xmlns="http://www.w3.org/2000/svg">
<g clip-path="url(#clip0)">
<path d="M26.9736 7.93807C26.9103 6.50346 26.6783 5.51718 26.346 4.66255C26.0032 3.75538 25.4757 2.94319 24.7847 2.26802C24.1095 1.58234 23.292 1.04954 22.3953 0.712053C21.5357 0.379721 20.5546 0.147726 19.12 0.0844739C17.6747 0.0158646 17.2158 0 13.5501 0C9.88431 0 9.42547 0.0158646 7.9855 0.079117C6.55089 0.142369 5.5646 0.37457 4.71018 0.706696C3.8028 1.04954 2.99062 1.57698 2.31545 2.26802C1.62976 2.94319 1.09717 3.76074 0.759478 4.6574C0.427145 5.51718 0.195151 6.4981 0.131898 7.93272C0.0632889 9.37805 0.0474243 9.83688 0.0474243 13.5026C0.0474243 17.1684 0.0632889 17.6272 0.126541 19.0672C0.189794 20.5018 0.421994 21.4881 0.754327 22.3427C1.09717 23.2499 1.62976 24.0621 2.31545 24.7373C2.99062 25.4229 3.80816 25.9557 4.70482 26.2932C5.5646 26.6256 6.54553 26.8575 7.98035 26.9208C9.42011 26.9843 9.87916 26.9999 13.5449 26.9999C17.2107 26.9999 17.6695 26.9843 19.1095 26.9208C20.5441 26.8575 21.5304 26.6256 22.3848 26.2932C24.1993 25.5917 25.634 24.1571 26.3355 22.3427C26.6676 21.4829 26.8998 20.5018 26.9631 19.0672C27.0263 17.6272 27.0422 17.1684 27.0422 13.5026C27.0422 9.83688 27.0368 9.37805 26.9736 7.93807ZM24.5422 18.9617C24.4841 20.2803 24.2626 20.9924 24.078 21.4671C23.6243 22.6433 22.6908 23.5769 21.5145 24.0306C21.0398 24.2152 20.3226 24.4367 19.0091 24.4945C17.585 24.558 17.1579 24.5737 13.5554 24.5737C9.95292 24.5737 9.52045 24.558 8.1015 24.4945C6.78288 24.4367 6.07083 24.2152 5.59612 24.0306C5.01078 23.8142 4.47798 23.4714 4.04551 23.0231C3.59718 22.5852 3.25434 22.0578 3.03801 21.4724C2.8534 20.9977 2.63191 20.2803 2.57402 18.9671C2.51056 17.543 2.4949 17.1156 2.4949 13.5131C2.4949 9.91064 2.51056 9.47818 2.57402 8.05943C2.63191 6.74081 2.8534 6.02876 3.03801 5.55406C3.25434 4.96851 3.59718 4.43591 4.05087 4.00324C4.48849 3.55491 5.01593 3.21207 5.60148 2.99594C6.07618 2.81133 6.79359 2.58985 8.10685 2.53174C9.53096 2.46849 9.95827 2.45263 13.5606 2.45263C17.1684 2.45263 17.5955 2.46849 19.0145 2.53174C20.3331 2.58985 21.0452 2.81133 21.5199 2.99594C22.1052 3.21207 22.638 3.55491 23.0705 4.00324C23.5188 4.44106 23.8617 4.96851 24.078 5.55406C24.2626 6.02876 24.4841 6.74596 24.5422 8.05943C24.6054 9.48353 24.6213 9.91064 24.6213 13.5131C24.6213 17.1156 24.6054 17.5376 24.5422 18.9617Z" fill="black"/>
<path d="M13.5501 6.56665C9.72092 6.56665 6.61414 9.67323 6.61414 13.5026C6.61414 17.3319 9.72092 20.4385 13.5501 20.4385C17.3794 20.4385 20.486 17.3319 20.486 13.5026C20.486 9.67323 17.3794 6.56665 13.5501 6.56665ZM13.5501 18.0017C11.0659 18.0017 9.0509 15.9869 9.0509 13.5026C9.0509 11.0182 11.0659 9.00341 13.5501 9.00341C16.0344 9.00341 18.0492 11.0182 18.0492 13.5026C18.0492 15.9869 16.0344 18.0017 13.5501 18.0017Z" fill="black"/>
<path d="M22.3796 6.29256C22.3796 7.18675 21.6546 7.91178 20.7602 7.91178C19.866 7.91178 19.141 7.18675 19.141 6.29256C19.141 5.39817 19.866 4.67334 20.7602 4.67334C21.6546 4.67334 22.3796 5.39817 22.3796 6.29256Z" fill="black"/>
</g>
<defs>
<clipPath id="clip0">
<rect width="27" height="27" fill="white"/>
</clipPath>
</defs>
</svg>
